<mxfile host="app.diagrams.net" modified="2023-04-04T07:12:38.052Z" agent="Mozilla/5.0 (Windows NT 10.0; Win64; x64) AppleWebKit/537.36 (KHTML, like Gecko) Chrome/88.0.4324.190 Safari/537.36" etag="d5Bboyv0NjKKWwOy1V5j" version="21.1.4" type="github">
  <diagram name="第 1 页" id="FzGQrjMJjPNIgCdw_Wz4">
    <mxGraphModel dx="819" dy="455" grid="1" gridSize="10" guides="1" tooltips="1" connect="1" arrows="1" fold="1" page="1" pageScale="1" pageWidth="827" pageHeight="1169" math="0" shadow="0">
      <root>
        <mxCell id="0" />
        <mxCell id="1" parent="0" />
        <mxCell id="OOd0eDpM8RUQgSAuVJhv-1" value="" style="ellipse;whiteSpace=wrap;html=1;aspect=fixed;" vertex="1" parent="1">
          <mxGeometry x="320" y="400" width="40" height="40" as="geometry" />
        </mxCell>
        <mxCell id="OOd0eDpM8RUQgSAuVJhv-3" value="" style="ellipse;whiteSpace=wrap;html=1;aspect=fixed;" vertex="1" parent="1">
          <mxGeometry x="400" y="360" width="40" height="40" as="geometry" />
        </mxCell>
        <mxCell id="OOd0eDpM8RUQgSAuVJhv-4" value="" style="ellipse;whiteSpace=wrap;html=1;aspect=fixed;" vertex="1" parent="1">
          <mxGeometry x="480" y="360" width="40" height="40" as="geometry" />
        </mxCell>
        <mxCell id="OOd0eDpM8RUQgSAuVJhv-5" value="" style="ellipse;whiteSpace=wrap;html=1;aspect=fixed;" vertex="1" parent="1">
          <mxGeometry x="400" y="440" width="40" height="40" as="geometry" />
        </mxCell>
        <mxCell id="OOd0eDpM8RUQgSAuVJhv-6" value="" style="ellipse;whiteSpace=wrap;html=1;aspect=fixed;" vertex="1" parent="1">
          <mxGeometry x="480" y="440" width="40" height="40" as="geometry" />
        </mxCell>
        <mxCell id="OOd0eDpM8RUQgSAuVJhv-7" value="" style="ellipse;whiteSpace=wrap;html=1;aspect=fixed;" vertex="1" parent="1">
          <mxGeometry x="560" y="400" width="40" height="40" as="geometry" />
        </mxCell>
        <mxCell id="OOd0eDpM8RUQgSAuVJhv-10" value="" style="endArrow=classic;html=1;rounded=0;entryX=0;entryY=0.5;entryDx=0;entryDy=0;exitX=1;exitY=0;exitDx=0;exitDy=0;" edge="1" parent="1" source="OOd0eDpM8RUQgSAuVJhv-1" target="OOd0eDpM8RUQgSAuVJhv-3">
          <mxGeometry relative="1" as="geometry">
            <mxPoint x="350" y="420" as="sourcePoint" />
            <mxPoint x="440" y="430" as="targetPoint" />
          </mxGeometry>
        </mxCell>
        <mxCell id="OOd0eDpM8RUQgSAuVJhv-11" value="ε" style="edgeLabel;resizable=0;html=1;align=center;verticalAlign=middle;" connectable="0" vertex="1" parent="OOd0eDpM8RUQgSAuVJhv-10">
          <mxGeometry relative="1" as="geometry" />
        </mxCell>
        <mxCell id="OOd0eDpM8RUQgSAuVJhv-12" value="" style="endArrow=classic;html=1;rounded=0;exitX=1;exitY=1;exitDx=0;exitDy=0;" edge="1" parent="1" source="OOd0eDpM8RUQgSAuVJhv-1" target="OOd0eDpM8RUQgSAuVJhv-5">
          <mxGeometry relative="1" as="geometry">
            <mxPoint x="354" y="433" as="sourcePoint" />
            <mxPoint x="400" y="407" as="targetPoint" />
          </mxGeometry>
        </mxCell>
        <mxCell id="OOd0eDpM8RUQgSAuVJhv-13" value="ε" style="edgeLabel;resizable=0;html=1;align=center;verticalAlign=middle;" connectable="0" vertex="1" parent="OOd0eDpM8RUQgSAuVJhv-12">
          <mxGeometry relative="1" as="geometry" />
        </mxCell>
        <mxCell id="OOd0eDpM8RUQgSAuVJhv-14" value="" style="endArrow=classic;html=1;rounded=0;entryX=0;entryY=0;entryDx=0;entryDy=0;exitX=1;exitY=0.5;exitDx=0;exitDy=0;" edge="1" parent="1" source="OOd0eDpM8RUQgSAuVJhv-4" target="OOd0eDpM8RUQgSAuVJhv-7">
          <mxGeometry relative="1" as="geometry">
            <mxPoint x="374" y="426" as="sourcePoint" />
            <mxPoint x="420" y="400" as="targetPoint" />
          </mxGeometry>
        </mxCell>
        <mxCell id="OOd0eDpM8RUQgSAuVJhv-15" value="ε" style="edgeLabel;resizable=0;html=1;align=center;verticalAlign=middle;" connectable="0" vertex="1" parent="OOd0eDpM8RUQgSAuVJhv-14">
          <mxGeometry relative="1" as="geometry" />
        </mxCell>
        <mxCell id="OOd0eDpM8RUQgSAuVJhv-16" value="" style="endArrow=classic;html=1;rounded=0;entryX=0;entryY=1;entryDx=0;entryDy=0;exitX=1;exitY=0.5;exitDx=0;exitDy=0;" edge="1" parent="1" source="OOd0eDpM8RUQgSAuVJhv-6" target="OOd0eDpM8RUQgSAuVJhv-7">
          <mxGeometry relative="1" as="geometry">
            <mxPoint x="384" y="436" as="sourcePoint" />
            <mxPoint x="430" y="410" as="targetPoint" />
          </mxGeometry>
        </mxCell>
        <mxCell id="OOd0eDpM8RUQgSAuVJhv-17" value="ε" style="edgeLabel;resizable=0;html=1;align=center;verticalAlign=middle;" connectable="0" vertex="1" parent="OOd0eDpM8RUQgSAuVJhv-16">
          <mxGeometry relative="1" as="geometry" />
        </mxCell>
        <mxCell id="OOd0eDpM8RUQgSAuVJhv-18" value="" style="endArrow=classic;html=1;rounded=0;entryX=0;entryY=0.5;entryDx=0;entryDy=0;exitX=1;exitY=0.5;exitDx=0;exitDy=0;" edge="1" parent="1" source="OOd0eDpM8RUQgSAuVJhv-3" target="OOd0eDpM8RUQgSAuVJhv-4">
          <mxGeometry relative="1" as="geometry">
            <mxPoint x="394" y="446" as="sourcePoint" />
            <mxPoint x="440" y="420" as="targetPoint" />
          </mxGeometry>
        </mxCell>
        <mxCell id="OOd0eDpM8RUQgSAuVJhv-19" value="a" style="edgeLabel;resizable=0;html=1;align=center;verticalAlign=middle;" connectable="0" vertex="1" parent="OOd0eDpM8RUQgSAuVJhv-18">
          <mxGeometry relative="1" as="geometry" />
        </mxCell>
        <mxCell id="OOd0eDpM8RUQgSAuVJhv-20" value="" style="endArrow=classic;html=1;rounded=0;entryX=0;entryY=0.5;entryDx=0;entryDy=0;" edge="1" parent="1" target="OOd0eDpM8RUQgSAuVJhv-6">
          <mxGeometry relative="1" as="geometry">
            <mxPoint x="440" y="460" as="sourcePoint" />
            <mxPoint x="450" y="430" as="targetPoint" />
          </mxGeometry>
        </mxCell>
        <mxCell id="OOd0eDpM8RUQgSAuVJhv-21" value="b" style="edgeLabel;resizable=0;html=1;align=center;verticalAlign=middle;" connectable="0" vertex="1" parent="OOd0eDpM8RUQgSAuVJhv-20">
          <mxGeometry relative="1" as="geometry" />
        </mxCell>
        <mxCell id="OOd0eDpM8RUQgSAuVJhv-22" value="" style="ellipse;whiteSpace=wrap;html=1;aspect=fixed;" vertex="1" parent="1">
          <mxGeometry x="240" y="400" width="40" height="40" as="geometry" />
        </mxCell>
        <mxCell id="OOd0eDpM8RUQgSAuVJhv-24" value="" style="ellipse;whiteSpace=wrap;html=1;aspect=fixed;" vertex="1" parent="1">
          <mxGeometry x="640" y="400" width="40" height="40" as="geometry" />
        </mxCell>
        <mxCell id="OOd0eDpM8RUQgSAuVJhv-23" value="" style="ellipse;whiteSpace=wrap;html=1;aspect=fixed;" vertex="1" parent="1">
          <mxGeometry x="645" y="405" width="30" height="30" as="geometry" />
        </mxCell>
        <mxCell id="OOd0eDpM8RUQgSAuVJhv-25" value="" style="endArrow=classic;html=1;rounded=0;" edge="1" parent="1">
          <mxGeometry relative="1" as="geometry">
            <mxPoint x="280" y="420" as="sourcePoint" />
            <mxPoint x="320" y="420" as="targetPoint" />
          </mxGeometry>
        </mxCell>
        <mxCell id="OOd0eDpM8RUQgSAuVJhv-26" value="ε" style="edgeLabel;resizable=0;html=1;align=center;verticalAlign=middle;" connectable="0" vertex="1" parent="OOd0eDpM8RUQgSAuVJhv-25">
          <mxGeometry relative="1" as="geometry" />
        </mxCell>
        <mxCell id="OOd0eDpM8RUQgSAuVJhv-27" value="" style="endArrow=classic;html=1;rounded=0;" edge="1" parent="1">
          <mxGeometry relative="1" as="geometry">
            <mxPoint x="600" y="419.8" as="sourcePoint" />
            <mxPoint x="640" y="419.8" as="targetPoint" />
          </mxGeometry>
        </mxCell>
        <mxCell id="OOd0eDpM8RUQgSAuVJhv-28" value="ε" style="edgeLabel;resizable=0;html=1;align=center;verticalAlign=middle;" connectable="0" vertex="1" parent="OOd0eDpM8RUQgSAuVJhv-27">
          <mxGeometry relative="1" as="geometry" />
        </mxCell>
        <mxCell id="OOd0eDpM8RUQgSAuVJhv-29" value="" style="endArrow=classic;html=1;entryX=0.5;entryY=0;entryDx=0;entryDy=0;curved=1;" edge="1" parent="1" target="OOd0eDpM8RUQgSAuVJhv-1">
          <mxGeometry relative="1" as="geometry">
            <mxPoint x="580" y="399.6" as="sourcePoint" />
            <mxPoint x="620" y="399.6" as="targetPoint" />
            <Array as="points">
              <mxPoint x="470" y="230" />
            </Array>
          </mxGeometry>
        </mxCell>
        <mxCell id="OOd0eDpM8RUQgSAuVJhv-30" value="ε" style="edgeLabel;resizable=0;html=1;align=center;verticalAlign=middle;" connectable="0" vertex="1" parent="OOd0eDpM8RUQgSAuVJhv-29">
          <mxGeometry relative="1" as="geometry">
            <mxPoint y="75" as="offset" />
          </mxGeometry>
        </mxCell>
        <mxCell id="OOd0eDpM8RUQgSAuVJhv-31" value="" style="endArrow=classic;html=1;exitX=0.5;exitY=1;exitDx=0;exitDy=0;entryX=0.5;entryY=1;entryDx=0;entryDy=0;curved=1;" edge="1" parent="1" source="OOd0eDpM8RUQgSAuVJhv-22" target="OOd0eDpM8RUQgSAuVJhv-24">
          <mxGeometry relative="1" as="geometry">
            <mxPoint x="380" y="390" as="sourcePoint" />
            <mxPoint x="480" y="390" as="targetPoint" />
            <Array as="points">
              <mxPoint x="450" y="580" />
            </Array>
          </mxGeometry>
        </mxCell>
        <mxCell id="OOd0eDpM8RUQgSAuVJhv-32" value="ε" style="edgeLabel;resizable=0;html=1;align=center;verticalAlign=middle;" connectable="0" vertex="1" parent="OOd0eDpM8RUQgSAuVJhv-31">
          <mxGeometry relative="1" as="geometry">
            <mxPoint y="-66" as="offset" />
          </mxGeometry>
        </mxCell>
        <mxCell id="OOd0eDpM8RUQgSAuVJhv-33" value="" style="endArrow=classic;html=1;rounded=0;" edge="1" parent="1">
          <mxGeometry relative="1" as="geometry">
            <mxPoint x="180" y="420" as="sourcePoint" />
            <mxPoint x="240" y="419.66" as="targetPoint" />
          </mxGeometry>
        </mxCell>
        <mxCell id="OOd0eDpM8RUQgSAuVJhv-34" value="start" style="edgeLabel;resizable=0;html=1;align=center;verticalAlign=middle;" connectable="0" vertex="1" parent="OOd0eDpM8RUQgSAuVJhv-33">
          <mxGeometry relative="1" as="geometry">
            <mxPoint as="offset" />
          </mxGeometry>
        </mxCell>
      </root>
    </mxGraphModel>
  </diagram>
</mxfile>
